<svg width="128" height="128" viewBox="0 0 128 128" fill="none" xmlns="http://www.w3.org/2000/svg">
  <defs>
    <linearGradient id="bg" x1="18" y1="10" x2="108" y2="118" gradientUnits="userSpaceOnUse">
      <stop stop-color="#0F172A"/>
      <stop offset="1" stop-color="#182A48"/>
    </linearGradient>
    <linearGradient id="stroke" x1="38" y1="34" x2="93" y2="93" gradientUnits="userSpaceOnUse">
      <stop stop-color="#5DD2FF"/>
      <stop offset="0.55" stop-color="#2278FF"/>
      <stop offset="1" stop-color="#FF8A5B"/>
    </linearGradient>
    <radialGradient id="glow" cx="0" cy="0" r="1" gradientUnits="userSpaceOnUse" gradientTransform="translate(94 30) rotate(126.469) scale(80.5586)">
      <stop stop-color="#5DD2FF" stop-opacity="0.7"/>
      <stop offset="1" stop-color="#5DD2FF" stop-opacity="0"/>
    </radialGradient>
  </defs>

  <rect width="128" height="128" rx="34" fill="url(#bg)"/>
  <rect x="12" y="12" width="104" height="104" rx="28" stroke="white" stroke-opacity="0.12" stroke-width="1.5"/>
  <circle cx="97" cy="31" r="28" fill="url(#glow)"/>

  <path d="M30 42.5H98" stroke="white" stroke-opacity="0.08" stroke-width="1.5"/>
  <path d="M30 63.5H98" stroke="white" stroke-opacity="0.08" stroke-width="1.5"/>
  <path d="M30 84.5H98" stroke="white" stroke-opacity="0.08" stroke-width="1.5"/>
  <path d="M42.5 30L42.5 98" stroke="white" stroke-opacity="0.08" stroke-width="1.5"/>
  <path d="M63.5 30L63.5 98" stroke="white" stroke-opacity="0.08" stroke-width="1.5"/>
  <path d="M84.5 30L84.5 98" stroke="white" stroke-opacity="0.08" stroke-width="1.5"/>

  <path d="M42 88L60.5 42C61.8 38.8 66.3 38.8 67.6 42L86 88" stroke="url(#stroke)" stroke-width="12" stroke-linecap="round" stroke-linejoin="round"/>
  <path d="M49.5 69H78" stroke="url(#stroke)" stroke-width="10" stroke-linecap="round"/>

  <circle cx="94" cy="33" r="4.5" fill="#FFCA6B"/>
</svg>
